# xmcd CD database file
#
# Track frame offsets:
#	150
#	22447
#	42655
#	62555
#	86120
#	104965
#	123507
#	152537
#	172992
#	196340
#	220435
#	239280
#	257847
#	287027
#
# Disc length: 4440 seconds
#
# Revision: 0
# Processed by: cddbd v1.5.1PL2 Copyright (c) Steve Scherf et al.
# Submitted via: CDex 1.51
#
DISCID=d911560e
DTITLE=安良城 紅 - Girl 2 Lady
DYEAR=2006
DGENRE=JPop
TTITLE0=THE POWER
TTITLE1=wake up
TTITLE2=Heart 2 heart
TTITLE3=Cherish
TTITLE4=FLASH(feat.KOHEI JAPAN)
TTITLE5=光の数だけグラマラス
TTITLE6=Into the sky
TTITLE7=SECRET LOVER
TTITLE8=太陽が月を照らして
TTITLE9=恋めぐり
TTITLE10=FLASH FLASH 【Bonus Tracks】
TTITLE11=Come Close to Me 【Bonus Tracks】
TTITLE12=Give me up 【Bonus Tracks】
TTITLE13=CDDB
EXTD=YEAR: 2006
EXTT0=
EXTT1=
EXTT2=
EXTT3=
EXTT4=
EXTT5=
EXTT6=
EXTT7=
EXTT8=
EXTT9=
EXTT10=
EXTT11=
EXTT12=
EXTT13=
PLAYORDER=
